# xmcd
#
# Track frame offsets:
#	150
#	12224
#	22304
#	35859
#	47655
#	61524
#	75569
#	89203
#	100544
#	111341
#	129692
#	139478
#	157104
#	174280
#	185198
#	191755
#	200087
#	213548
#	221927
#	235651
#
# Disc length: 3246 seconds
#
# Revision: 0
# Processed by: cddbd v1.5.2PL0 Copyright (c) Steve Scherf et al.
# Submitted via: FairStars CD Ripper 1.90
#
DISCID=340cac14
DTITLE=Tennessee Ernie Ford - Christmas Favorites
DYEAR=2018
DGENRE=Country
TTITLE0=Silent Night
TTITLE1=We Three Kings
TTITLE2=The First Noel
TTITLE3=How Great Thou Art
TTITLE4=It Came Upon A Midnight Clear
TTITLE5=Sleep, My Little Lord Jesus
TTITLE6=I Love To Tell The Story
TTITLE7=Adesta Fideles
TTITLE8=O Harken Ye
TTITLE9=Alleluia
TTITLE10=God Rest Ye Merry Gemtlemen
TTITLE11=Some Children See Him
TTITLE12=Born A Child In Bethlehem
TTITLE13=The Star Carol
TTITLE14=Hark! The Herald Angels Sing
TTITLE15=O Holy Night
TTITLE16=A Mighty Fortress Is Our God
TTITLE17=O Little Town Of Bethlehem
TTITLE18=Jesus Paid It All
TTITLE19=Joy To The World
EXTD=
EXTT0=
EXTT1=
EXTT2=
EXTT3=
EXTT4=
EXTT5=
EXTT6=
EXTT7=
EXTT8=
EXTT9=
EXTT10=
EXTT11=
EXTT12=
EXTT13=
EXTT14=
EXTT15=
EXTT16=
EXTT17=
EXTT18=
EXTT19=
PLAYORDER=
